# xmcd CD database file
#
# Track frame offsets:
#	150
#	10183
#	17818
#	28088
#	38884
#	44818
#	55938
#	66141
#	78252
#	87516
#	96429
#	104636
#	112307
#	119221
#
# Disc length: 1723 seconds
#
# Revision: 0
# Processed by: cddbd v1.5.2PL0 Copyright (c) Steve Scherf et al.
# Submitted via: CDex 1.51
#
DISCID=cd06b90e
DTITLE=Various Artist - Jim Reeves Meets Frankie Laine
DYEAR=2005
DGENRE=Country
TTITLE0=He'll Have To Go - Jim Reeves
TTITLE1=Bimbo - Jim Reeves
TTITLE2=Just Call Me Lonesome - Jim Reeves
TTITLE3=I Love You More - Jim Reeves
TTITLE4=Hive I Told You Lately That I Love You - Jim Reeves
TTITLE5=Am I Losing You - Jim Reeves
TTITLE6=I Missed You - Jim Reeves
TTITLE7=Four Walls - Jim Reeves
TTITLE8=Home - Jim Reeves
TTITLE9=I'd Like To Be - Jim Reeves
TTITLE10=Waiting For A Train - Jim Reeves
TTITLE11=I Know One - Jim Reeves
TTITLE12=Everywhere You Go - Jim Reeves
TTITLE13=Anna Marie - Jim Reeves
EXTD=YEAR: 2005
EXTT0=
EXTT1=
EXTT2=
EXTT3=
EXTT4=
EXTT5=
EXTT6=
EXTT7=
EXTT8=
EXTT9=
EXTT10=
EXTT11=
EXTT12=
EXTT13=
PLAYORDER=
